# xmcd
#
# Track frame offsets:
#	150
#	13277
#	31087
#	47230
#	59067
#	75895
#	91597
#	108682
#	124357
#	142637
#	152167
#	168057
#	184737
#	196722
#
# Disc length: 2807 seconds
#
# Revision: 0
# Processed by: cddbd v1.4PL0 Copyright (c) Steve Scherf et al.
# Submitted via: audiograbber 1.81.03
#
DISCID=aa0af50e
DTITLE=Bjøro Håland - The Door To My Heart
DYEAR=1900
DGENRE=Country
TTITLE0=The Yodelin` Blues
TTITLE1=Some Fools
TTITLE2=Afraid
TTITLE3=Lonestar Lonely
TTITLE4=The Door
TTITLE5=Rodeo Romero
TTITLE6=I`m So Lonsome I Could Cry
TTITLE7=Mexican Minutts
TTITLE8=Old Heart
TTITLE9=Street Of Laredo
TTITLE10=The Seventin Direction
TTITLE11=Sweet Dreams
TTITLE12=Yonder Comes A Sucker
TTITLE13=How`s The World Treating You
EXTD=
EXTT0=
EXTT1=
EXTT2=
EXTT3=
EXTT4=
EXTT5=
EXTT6=
EXTT7=
EXTT8=
EXTT9=
EXTT10=
EXTT11=
EXTT12=
EXTT13=
PLAYORDER=
